<svg width="32" height="32" viewBox="0 0 32 32" fill="none" xmlns="http://www.w3.org/2000/svg">
<g clip-path="url(#clip0_581_18605)">
<g clip-path="url(#clip1_581_18605)">
<g clip-path="url(#clip2_581_18605)">
<path d="M29.1016 0H2.89844C1.30025 0 0 1.30025 0 2.89844V17.8047C0 19.4029 1.30025 20.7031 2.89844 20.7031H11.2969V26.3594H10.2734C8.76138 26.3594 7.53125 27.5895 7.53125 29.1016V31.0625C7.53125 31.5802 7.951 32 8.46875 32H23.5312C24.049 32 24.4688 31.5802 24.4688 31.0625V29.1016C24.4688 27.5895 23.2386 26.3594 21.7266 26.3594H20.7031V20.7031H29.1016C30.6997 20.7031 32 19.4029 32 17.8047V2.89844C32 1.30025 30.6997 0 29.1016 0ZM21.7266 28.2344C22.2047 28.2344 22.5938 28.6234 22.5938 29.1016V30.125H9.40625V29.1016C9.40625 28.6234 9.79525 28.2344 10.2734 28.2344H21.7266ZM13.1719 26.3594V20.7031H18.8281V26.3594H13.1719ZM30.125 17.8047C30.125 18.369 29.6659 18.8281 29.1016 18.8281H2.89844C2.33413 18.8281 1.875 18.369 1.875 17.8047V2.89844C1.875 2.33413 2.33413 1.875 2.89844 1.875H29.1016C29.6659 1.875 30.125 2.33413 30.125 2.89844V17.8047Z" fill="#64748B"/>
<path d="M21.648 3.75854C18.0146 3.75854 15.0586 6.71455 15.0586 10.348C15.0586 13.9814 18.0146 16.9374 21.648 16.9374C25.2815 16.9374 28.2375 13.9814 28.2375 10.348C28.2375 6.71455 25.2815 3.75854 21.648 3.75854ZM21.648 15.0624C19.0485 15.0624 16.9335 12.9475 16.9335 10.348C16.9335 7.74842 19.0485 5.63354 21.648 5.63354C24.2476 5.63354 26.3625 7.74842 26.3625 10.348C26.3625 12.9475 24.2476 15.0624 21.648 15.0624Z" fill="#64748B"/>
<path d="M12.2344 3.76562H4.70312C4.18537 3.76562 3.76562 4.18537 3.76562 4.70312V8.46875C3.76562 8.9865 4.18537 9.40625 4.70312 9.40625H12.2344C12.7521 9.40625 13.1719 8.9865 13.1719 8.46875V4.70312C13.1719 4.18537 12.7521 3.76562 12.2344 3.76562ZM11.2969 7.53125H5.64062V5.64062H11.2969V7.53125Z" fill="#64748B"/>
<path d="M8.46875 11.2969H4.70312C4.18537 11.2969 3.76562 11.7166 3.76562 12.2344C3.76562 12.7521 4.18537 13.1719 4.70312 13.1719H8.46875C8.9865 13.1719 9.40625 12.7521 9.40625 12.2344C9.40625 11.7166 8.9865 11.2969 8.46875 11.2969Z" fill="#64748B"/>
<path d="M8.46875 15.0625H4.70312C4.18537 15.0625 3.76562 15.4822 3.76562 16C3.76562 16.5178 4.18537 16.9375 4.70312 16.9375H8.46875C8.9865 16.9375 9.40625 16.5178 9.40625 16C9.40625 15.4822 8.9865 15.0625 8.46875 15.0625Z" fill="#64748B"/>
</g>
</g>
</g>
<defs>
<clipPath id="clip0_581_18605">
<rect width="32" height="32" fill="white"/>
</clipPath>
<clipPath id="clip1_581_18605">
<rect width="32" height="32" fill="white"/>
</clipPath>
<clipPath id="clip2_581_18605">
<rect width="32" height="32" fill="white"/>
</clipPath>
</defs>
</svg>
