<svg width="32" height="32" viewBox="0 0 32 32" fill="none" xmlns="http://www.w3.org/2000/svg">
<g clip-path="url(#clip0_581_18616)">
<g clip-path="url(#clip1_581_18616)">
<g clip-path="url(#clip2_581_18616)">
<path d="M21.6492 8.77344C22.1396 8.77344 22.6094 8.34225 22.5867 7.83594C22.564 7.328 22.1748 6.89844 21.6492 6.89844C21.1589 6.89844 20.689 7.32963 20.7117 7.83594C20.7345 8.34387 21.1237 8.77344 21.6492 8.77344Z" fill="#64748B"/>
<path d="M27.2977 10.6562C27.788 10.6562 28.2579 10.2251 28.2352 9.71875C28.2124 9.21081 27.8232 8.78125 27.2977 8.78125C26.8073 8.78125 26.3375 9.21244 26.3602 9.71875C26.3829 10.2267 26.7721 10.6562 27.2977 10.6562Z" fill="#64748B"/>
<path d="M25.4149 6.89087C25.9052 6.89087 26.375 6.45968 26.3524 5.95337C26.3296 5.44543 25.9404 5.01587 25.4149 5.01587C24.9245 5.01587 24.4547 5.44706 24.4774 5.95337C24.5001 6.46131 24.8893 6.89087 25.4149 6.89087Z" fill="#64748B"/>
<path d="M4.70391 15.6873C5.19429 15.6873 5.6641 15.2561 5.64141 14.7498C5.61866 14.2418 5.22948 13.8123 4.70391 13.8123C4.21354 13.8123 3.74373 14.2434 3.76641 14.7498C3.78916 15.2577 4.17835 15.6873 4.70391 15.6873Z" fill="#64748B"/>
<path d="M8.46954 11.9297C7.97916 11.9297 7.50935 12.3609 7.53204 12.8672C7.55479 13.3751 7.94398 13.8047 8.46954 13.8047C8.95991 13.8047 9.42973 13.3735 9.40704 12.8672C9.38429 12.3593 8.9951 11.9297 8.46954 11.9297Z" fill="#64748B"/>
<path d="M31.0625 0H0.9375C0.41975 0 0 0.41975 0 0.9375V31.0625C0 31.5802 0.41975 32 0.9375 32H31.0625C31.5802 32 32 31.5802 32 31.0625V0.9375C32 0.41975 31.5802 0 31.0625 0ZM30.125 30.125H1.875V24.4714C8.89713 24.5098 12.7786 24.9776 16.5369 25.4308C20.1171 25.8626 23.8137 26.3083 30.125 26.3486V30.125ZM5.64062 22.6631V20.3451L8.69006 18.8203H10.8231L9.12562 22.8246C8.06044 22.7581 6.90819 22.7028 5.64062 22.6631ZM20.8841 24.0314C20.2084 23.9663 19.558 23.8966 18.9186 23.8241L22.3559 15.7158L24.0965 16.4537L20.8841 24.0314ZM26.3594 22.9274V24.3948C25.0762 24.3469 23.921 24.2801 22.8492 24.2L23.7855 21.9912L26.3594 22.9274ZM16.9791 23.5955C16.9066 23.5868 16.834 23.578 16.7614 23.5693C16.1886 23.5002 15.613 23.4308 15.0243 23.3626L19.1064 13.7332L19.2561 14.1033C19.3493 14.3338 19.5303 14.5179 19.7593 14.6149L20.6297 14.9839L16.9791 23.5955ZM13.0779 23.1497C12.4471 23.0857 11.7917 23.0244 11.1015 22.9676L16.1567 11.0428L17.8975 11.7807L13.0779 23.1497ZM30.125 24.4737C29.4652 24.4696 28.8364 24.461 28.2344 24.4486V22.2709C28.2344 21.8767 27.9878 21.5246 27.6173 21.3898L24.5183 20.2626L26.1886 16.3224C26.2857 16.0934 26.2878 15.8354 26.1946 15.6049C26.1013 15.3744 25.9203 15.1904 25.6914 15.0933L20.8485 13.0403L19.9957 10.9321C19.9024 10.7016 19.7214 10.5175 19.4925 10.4204L16.0253 8.95063C15.5486 8.74863 14.9983 8.97119 14.7963 9.44788L11.6179 16.9453H8.46875C8.32319 16.9453 8.17969 16.9792 8.0495 17.0443L4.28387 18.9271C3.96625 19.0859 3.76562 19.4105 3.76562 19.7656V22.6176C3.16094 22.6071 2.53144 22.5999 1.875 22.5963V1.875H30.125V24.4737Z" fill="#64748B"/>
<path d="M4.04307 9.21015C4.22588 9.39134 4.46451 9.4819 4.70313 9.4819C4.94438 9.4819 5.18563 9.38934 5.36888 9.20453L6.66226 7.90003C7.54207 8.53546 9.12901 9.4819 10.7788 9.4819C13.3984 9.4819 14.6904 7.19578 14.7441 7.09846C14.8998 6.81646 14.8998 6.47434 14.7441 6.1924C14.6904 6.09503 13.3984 3.80884 10.7788 3.80884C9.12901 3.80884 7.54201 4.75534 6.6622 5.39078L5.36888 4.08634C5.00432 3.71853 4.41076 3.71609 4.04307 4.08059C3.67538 4.44515 3.67282 5.03871 4.03738 5.4064L5.26576 6.6454L4.03738 7.88428C3.67282 8.25196 3.67538 8.84559 4.04307 9.21015ZM10.7788 5.68384C11.7262 5.68384 12.3923 6.22784 12.7626 6.64296C12.3906 7.05703 11.7193 7.6069 10.7788 7.6069C9.87626 7.6069 8.88088 7.1184 8.1462 6.6454C8.88088 6.1724 9.87626 5.68384 10.7788 5.68384Z" fill="#64748B"/>
</g>
</g>
</g>
<defs>
<clipPath id="clip0_581_18616">
<rect width="32" height="32" fill="white"/>
</clipPath>
<clipPath id="clip1_581_18616">
<rect width="32" height="32" fill="white"/>
</clipPath>
<clipPath id="clip2_581_18616">
<rect width="32" height="32" fill="white"/>
</clipPath>
</defs>
</svg>
