<svg width="30" height="32" viewBox="0 0 30 32" fill="none" xmlns="http://www.w3.org/2000/svg">
<path d="M2 24C3.46875 24 4.88542 23.8125 6.25 23.4375C7.61458 23.0625 8.88542 22.5208 10.0625 21.8125C11.2396 21.1042 12.3177 20.2708 13.2969 19.3125C14.276 18.3542 15.1146 17.276 15.8125 16.0781C16.5104 14.8802 17.0469 13.6042 17.4219 12.25C17.7969 10.8958 17.9896 9.47917 18 8C18 6.61458 17.8229 5.25521 17.4688 3.92188C17.1146 2.58854 16.599 1.32292 15.9219 0.125C17.2552 0.291667 18.5312 0.609375 19.75 1.07812C20.9688 1.54688 22.099 2.14583 23.1406 2.875C24.1823 3.60417 25.125 4.44271 25.9688 5.39062C26.8125 6.33854 27.5312 7.375 28.125 8.5C28.7188 9.625 29.1823 10.8177 29.5156 12.0781C29.849 13.3385 30.0104 14.6458 30 16C30 17.4688 29.8125 18.8854 29.4375 20.25C29.0625 21.6146 28.5208 22.8854 27.8125 24.0625C27.1042 25.2396 26.2708 26.3177 25.3125 27.2969C24.3542 28.276 23.276 29.1146 22.0781 29.8125C20.8802 30.5104 19.6042 31.0469 18.25 31.4219C16.8958 31.7969 15.4792 31.9896 14 32C12.5625 32 11.1615 31.8125 9.79688 31.4375C8.43229 31.0625 7.15104 30.526 5.95312 29.8281C4.75521 29.1302 3.65104 28.276 2.64062 27.2656C1.63021 26.2552 0.776042 25.125 0.078125 23.875C0.401042 23.9167 0.71875 23.9479 1.03125 23.9688C1.34375 23.9896 1.66667 24 2 24ZM14 30C15.2917 30 16.5312 29.8333 17.7188 29.5C18.9062 29.1667 20.0208 28.6979 21.0625 28.0938C22.1042 27.4896 23.0469 26.7604 23.8906 25.9062C24.7344 25.0521 25.4635 24.1094 26.0781 23.0781C26.6927 22.0469 27.1667 20.9323 27.5 19.7344C27.8333 18.5365 28 17.2917 28 16C28 14.5833 27.7917 13.2135 27.375 11.8906C26.9583 10.5677 26.375 9.33854 25.625 8.20312C24.875 7.06771 23.9583 6.05729 22.875 5.17188C21.7917 4.28646 20.599 3.57812 19.2969 3.04688C19.7656 4.66146 20 6.3125 20 8C20 9.52083 19.8177 10.9896 19.4531 12.4062C19.0885 13.8229 18.5677 15.1667 17.8906 16.4375C17.2135 17.7083 16.3958 18.8802 15.4375 19.9531C14.4792 21.026 13.4115 21.974 12.2344 22.7969C11.0573 23.6198 9.78646 24.2917 8.42188 24.8125C7.05729 25.3333 5.61458 25.6875 4.09375 25.875C5.42708 27.2083 6.9375 28.2292 8.625 28.9375C10.3125 29.6458 12.1042 30 14 30Z" fill="#64748B"/>
</svg>
