<svg width="26" height="32" viewBox="0 0 26 32" fill="none" xmlns="http://www.w3.org/2000/svg">
<path d="M24.8124 13.3342C22.7187 11.9557 21.4688 9.63625 21.4688 7.1295V0.9375C21.4688 0.41975 21.049 0 20.5312 0H5.46875C4.951 0 4.53125 0.41975 4.53125 0.9375V7.1295C4.53125 9.63619 3.28125 11.9557 1.18756 13.3342C0.924187 13.5076 0.765625 13.8018 0.765625 14.1172V31.0625C0.765625 31.5802 1.18537 32 1.70312 32H24.2969C24.8146 32 25.2344 31.5802 25.2344 31.0625V14.1172C25.2344 13.8018 25.0758 13.5076 24.8124 13.3342ZM12.059 30.125H2.64062V26.3516H12.059V30.125ZM12.059 24.4766H2.64062V20.1484H12.059V24.4766ZM12.059 18.2734H2.64062V14.6056C5.00781 12.8544 6.40625 10.0966 6.40625 7.1295V1.875H8.57944L12.059 11.3714V18.2734ZM10.5764 1.875H15.4228L12.9973 8.48231L10.5764 1.875ZM23.3594 30.125H13.934V26.3516H23.3594V30.125ZM23.3594 24.4766H13.934V20.1484H23.3594V24.4766ZM23.3594 18.2734H13.934V11.3716L17.4201 1.875H19.5938V7.1295C19.5938 10.0966 20.9922 12.8544 23.3594 14.6056V18.2734Z" fill="#64748B"/>
</svg>
