<svg width="32" height="32" viewBox="0 0 32 32" fill="none" xmlns="http://www.w3.org/2000/svg">
<g clip-path="url(#clip0_581_18600)">
<path d="M31.8776 15.8153C31.1498 13.5763 29.9707 11.6575 28.3729 10.112C26.6697 8.46466 24.5252 7.28638 21.9798 6.59454C21.9715 6.59191 21.9628 6.5901 21.9544 6.58773C21.5475 6.47779 21.1304 6.38022 20.7032 6.29515V5.28656C20.7032 4.51078 20.418 3.78557 19.9367 3.22499C19.9495 3.21161 19.9628 3.19818 19.9748 3.18499C20.7971 2.28527 20.7097 1.02498 20.697 0.884224C20.6506 0.368582 20.1948 -0.0116804 19.6792 0.0345711C19.1635 0.0810102 18.7831 0.536713 18.8295 1.05242C18.8377 1.14323 18.8291 1.65919 18.5908 1.91995C18.544 1.9712 18.4015 2.12708 17.9526 2.1272C17.243 1.96101 16.5873 1.87582 15.9999 1.87582C15.4127 1.87582 14.7569 1.96101 14.0472 2.1272C13.5984 2.12708 13.4559 1.9712 13.409 1.91995C13.1707 1.65919 13.1621 1.14317 13.1703 1.05242C13.2167 0.536713 12.8363 0.0810102 12.3206 0.0345711C11.805 -0.0116804 11.3492 0.368582 11.3028 0.884224C11.2901 1.02498 11.2027 2.28527 12.025 3.18499C12.0371 3.19818 12.0503 3.21161 12.0631 3.22499C11.5818 3.78557 11.2967 4.51078 11.2967 5.28662V6.29522C8.18525 6.91468 5.60766 8.19628 3.62697 10.112C2.02917 11.6575 0.849944 13.5764 0.122357 15.815C-0.173465 16.7242 0.0745433 17.6818 0.785879 18.3767C1.65785 19.2285 3.00402 19.5037 4.21524 19.0779C5.57848 18.5991 6.98052 18.2259 8.38276 17.9685C9.54998 17.7542 10.7993 18.116 11.5651 18.8907C12.481 19.8168 13.7497 20.4148 15.1344 20.5918C15.3347 21.792 15.9153 22.524 16.3996 23.1347C16.9339 23.8081 17.3199 24.2947 17.3199 25.3771C17.3199 26.4625 16.9324 26.9478 16.396 27.6195C15.8019 28.3636 15.0624 29.2898 15.0624 31.0319C15.0624 31.5496 15.4822 31.9694 15.9999 31.9694C16.5177 31.9694 16.9375 31.5496 16.9375 31.0319C16.9375 29.9465 17.325 29.4612 17.8613 28.7895C18.4555 28.0453 19.1949 27.1192 19.1949 25.3771C19.1949 23.6414 18.4595 22.7143 17.8687 21.9694C17.4964 21.5 17.1952 21.1203 17.0438 20.5666C18.3589 20.3626 19.5584 19.7769 20.4349 18.8906C21.2006 18.1161 22.45 17.7542 23.6172 17.9686C25.0192 18.2259 26.4213 18.5991 27.7844 19.0779C28.996 19.5037 30.3421 19.2286 31.214 18.3767C31.9253 17.6817 32.1734 16.7241 31.8776 15.8153ZM14.1276 4.0397C14.8364 3.84814 15.4664 3.75094 15.9999 3.75094C16.5334 3.75094 17.1634 3.84814 17.8719 4.0397C18.4349 4.19202 18.8281 4.70479 18.8281 5.28662V6.00952C17.924 5.91108 16.9774 5.86039 15.9999 5.86039C15.0223 5.86039 14.0757 5.91108 13.1717 6.00952V5.28656C13.1717 4.70473 13.5649 4.19196 14.1276 4.0397ZM29.9037 17.0353C29.604 17.3281 29.0247 17.5262 28.4062 17.3088C28.406 17.3088 28.406 17.3088 28.4059 17.3087C26.9508 16.7977 25.4536 16.3992 23.9557 16.1242C22.1686 15.7962 20.3087 16.3511 19.1016 17.5722C18.3475 18.3347 17.2169 18.772 15.9999 18.772C14.7828 18.772 13.6523 18.3347 12.8983 17.5723C11.9206 16.5832 10.5151 16.0314 9.06678 16.0314C8.72664 16.0314 8.38395 16.0618 8.04412 16.1242C6.5462 16.3991 5.04896 16.7976 3.5936 17.3088C2.97495 17.5262 2.39581 17.3281 2.09611 17.0353C1.89517 16.839 1.83098 16.6237 1.90542 16.3949C2.7902 13.6727 4.82208 10.3512 9.46811 8.72705C9.62417 10.4405 10.0939 11.617 10.573 12.6787C10.7295 13.0255 11.0708 13.2308 11.4281 13.2308C11.557 13.2308 11.6881 13.204 11.8132 13.1475C12.2852 12.9345 12.4951 12.3792 12.2821 11.9073C11.8231 10.8902 11.4054 9.83396 11.3095 8.20822C11.6551 8.13209 12.0119 8.06378 12.3816 8.00502C13.5047 7.82614 14.722 7.73545 15.9999 7.73545C17.2779 7.73545 18.4952 7.82614 19.6186 8.00509C20.0056 8.06659 20.3787 8.13846 20.7394 8.21897C20.6423 9.83871 20.2253 10.8926 19.7673 11.9075C19.5543 12.3795 19.7641 12.9347 20.2362 13.1478C20.3613 13.2042 20.4923 13.231 20.6212 13.231C20.9785 13.231 21.3198 13.0257 21.4763 12.6789C21.9539 11.6207 22.4222 10.4486 22.5799 8.74424C27.1916 10.3744 29.2128 13.6822 30.0946 16.3953C30.1688 16.6237 30.1046 16.839 29.9037 17.0353Z" fill="#64748B"/>
</g>
<defs>
<clipPath id="clip0_581_18600">
<rect width="32" height="32" fill="white"/>
</clipPath>
</defs>
</svg>
