<svg width="32" height="32" viewBox="0 0 32 32" fill="none" xmlns="http://www.w3.org/2000/svg">
<path d="M26.8324 7.72402L26.9608 8.03119H27.2937H30.1068C30.8745 8.03119 31.5 8.65664 31.5 9.42444V15.0442C31.5 15.812 30.8745 16.4375 30.1068 16.4375H27.2938H26.9608L26.8324 16.7447C26.5672 17.3791 26.2484 17.9856 25.8808 18.5579L25.386 19.3281H26.3014H27.2969C29.614 19.3281 31.5 21.2141 31.5 23.5312V31.0625C31.5 31.3041 31.3041 31.5 31.0625 31.5H0.9375C0.695892 31.5 0.5 31.3041 0.5 31.0625V23.5312C0.5 21.2141 2.38595 19.3281 4.70312 19.3281H5.69863H6.61408L6.11931 18.5579C5.75168 17.9856 5.4328 17.3791 5.16764 16.7447L5.03926 16.4375H4.70631H1.89325C1.12544 16.4375 0.5 15.812 0.5 15.0443V9.4245C0.5 8.6567 1.12546 8.03125 1.89325 8.03125H4.70631H5.03924L5.16763 7.72408C6.93965 3.48466 11.1289 0.5 16 0.5C20.8711 0.5 25.0604 3.48466 26.8324 7.72402ZM27.9037 8.90625H27.271L27.4173 9.52182C27.6242 10.3926 27.7344 11.3007 27.7344 12.2344C27.7344 13.1681 27.6242 14.0762 27.4173 14.947L27.271 15.5626H27.9037H30.1068C30.393 15.5626 30.625 15.3305 30.625 15.0443V9.4245C30.625 9.13835 30.393 8.90625 30.1068 8.90625H27.9037ZM4.09625 15.5625H4.72896L4.58271 14.9469C4.37582 14.0761 4.26562 13.168 4.26562 12.2343C4.26562 11.3006 4.37582 10.3926 4.58271 9.52176L4.72896 8.90619H4.09625H1.89325C1.60702 8.90619 1.375 9.13825 1.375 9.42444V15.0442C1.375 15.3304 1.60702 15.5625 1.89325 15.5625H4.09625ZM1.375 30.125V30.625H1.875H9.49875H11.2308L9.76522 29.7019C6.73878 27.7958 4.64167 24.5484 4.31207 20.8033L4.25663 20.1733L3.65642 20.3726C2.33375 20.8119 1.375 22.0599 1.375 23.5312V30.125ZM28.3436 20.3726L27.7434 20.1732L27.6879 20.8033C27.3583 24.5484 25.2612 27.7958 22.2348 29.7019L20.7692 30.625H22.5012H30.125H30.625V30.125V23.5312C30.625 22.0599 29.6662 20.8119 28.3436 20.3726ZM26.8145 20.748L26.8636 20.2031H26.3165H24.8209H24.6079L24.4603 20.3568C22.3226 22.5826 19.3202 23.9688 16 23.9688C12.6798 23.9688 9.67741 22.5826 7.53961 20.3568L7.39204 20.2031H7.179H5.6835H5.1364L5.18552 20.748C5.68395 26.2775 10.3425 30.625 16 30.625C21.6575 30.625 26.316 26.2775 26.8145 20.748ZM5.14062 12.2344C5.14062 18.2227 10.0117 23.0938 16 23.0938C21.9883 23.0938 26.8594 18.2227 26.8594 12.2344C26.8594 6.24605 21.9883 1.375 16 1.375C10.0117 1.375 5.14062 6.24605 5.14062 12.2344Z" fill="#64748B" stroke="#64748B"/>
<path d="M9.91406 12.2344C9.91406 8.87902 12.6446 6.14844 16 6.14844C19.3554 6.14844 22.0859 8.87902 22.0859 12.2344C22.0859 15.5897 19.3554 18.3203 16 18.3203C12.6446 18.3203 9.91406 15.5897 9.91406 12.2344ZM10.7891 12.2344C10.7891 15.1081 13.1262 17.4453 16 17.4453C18.8738 17.4453 21.2109 15.1081 21.2109 12.2344C21.2109 9.36061 18.8738 7.02344 16 7.02344C13.1262 7.02344 10.7891 9.36061 10.7891 12.2344Z" fill="#64748B" stroke="#64748B"/>
</svg>
