<svg width="32" height="22" viewBox="0 0 32 22" fill="none" xmlns="http://www.w3.org/2000/svg">
<path d="M31.8888 10.376C31.8541 10.3113 31.0171 8.77347 29.0881 7.25754C27.3325 5.87772 24.2814 4.23291 19.7161 4.23291C19.6381 4.23291 19.5606 4.23454 19.4828 4.23547C19.2986 3.8076 18.9967 3.24916 18.5169 2.68866C17.6493 1.67529 16.0184 0.467285 13.1758 0.467285C12.6581 0.467285 12.2383 0.887035 12.2383 1.40479V5.60029C10.8661 6.08797 9.65337 6.64466 8.65731 7.16303C7.42537 7.80416 6.40331 8.44335 5.64062 8.96147V8.93604C5.64062 6.34272 3.53081 4.23291 0.9375 4.23291C0.41975 4.23291 0 4.65266 0 5.17041V7.05322C0 8.59191 0.74275 9.96029 1.8885 10.8188C0.74275 11.6775 0 13.0459 0 14.5845V16.4673C0 16.9851 0.41975 17.4048 0.9375 17.4048C3.53081 17.4048 5.64062 15.295 5.64062 12.7017V12.6763C6.40325 13.1944 7.42537 13.8337 8.65731 14.4747C9.65337 14.9931 10.8661 15.5498 12.2383 16.0375V20.595C12.2383 21.1128 12.6581 21.5325 13.1758 21.5325C16.0397 21.5325 17.6755 20.2083 18.5434 19.0976C19.0272 18.4785 19.3265 17.8647 19.5056 17.4025C19.5758 17.4033 19.6458 17.4048 19.7162 17.4048C21.1917 17.4048 22.508 17.2323 23.6746 16.9532C23.7317 16.9443 23.7882 16.9315 23.8429 16.9123C26.1997 16.3203 27.9274 15.2925 29.0882 14.3802C31.0171 12.8643 31.8542 11.3265 31.8889 11.2617C32.0371 10.9852 32.0371 10.6527 31.8888 10.376ZM3.76562 12.7017C3.76562 13.9327 2.97506 14.9825 1.875 15.3702V14.5845C1.875 13.3536 2.66556 12.3037 3.76562 11.9161V12.7017ZM3.76562 9.72178C2.66556 9.33416 1.875 8.28429 1.875 7.05335V6.26772C2.97506 6.65535 3.76562 7.70522 3.76562 8.93616V9.72178ZM14.1132 2.40185C15.9611 2.6466 16.9387 3.5996 17.4365 4.36741C16.275 4.50166 15.1609 4.7286 14.1132 5.01272V2.40185ZM9.96456 13.0361C9.82837 12.9683 9.69512 12.9008 9.5665 12.8342C8.13531 12.0925 6.995 11.3444 6.25575 10.819C6.995 10.2935 8.13525 9.54541 9.5665 8.80372C9.69519 8.73703 9.82838 8.6696 9.96463 8.60179C10.1489 9.2721 10.2421 10.014 10.2421 10.8188C10.2421 11.6236 10.1488 12.3656 9.96456 13.0361ZM17.066 17.9432C16.3488 18.861 15.3581 19.4138 14.1133 19.5931V16.6252C15.1803 16.9145 16.316 17.1447 17.5006 17.2778C17.3866 17.4884 17.2438 17.7156 17.066 17.9432ZM21.8352 15.3943C21.1533 15.4842 20.4468 15.5298 19.7161 15.5298C16.699 15.5298 13.9016 14.7317 11.6886 13.8194C11.9732 12.9098 12.1171 11.9046 12.1171 10.8187C12.1171 9.73297 11.9732 8.72785 11.6886 7.81841C13.9016 6.9061 16.6991 6.10797 19.7161 6.10797C20.4468 6.10797 21.1533 6.1536 21.8352 6.24354C21.2727 7.19872 20.7109 8.68616 20.7109 10.8189C20.7109 12.9517 21.2727 14.4392 21.8352 15.3943ZM27.8574 12.9622C26.6642 13.8844 25.314 14.56 23.8195 14.9863C23.3811 14.4512 22.5859 13.1584 22.5859 10.8189C22.5859 8.47272 23.3744 7.18866 23.8186 6.65129C25.3134 7.07754 26.6639 7.75322 27.8574 8.6756C28.9201 9.49691 29.5979 10.328 29.9475 10.8188C29.5973 11.3107 28.9197 12.1413 27.8574 12.9622Z" fill="#64748B"/>
<path d="M25.4149 9.88135C24.9245 9.88135 24.4547 10.3125 24.4774 10.8188C24.5001 11.3268 24.8893 11.7563 25.4149 11.7563C25.9052 11.7563 26.375 11.3252 26.3524 10.8188C26.3296 10.3109 25.9404 9.88135 25.4149 9.88135Z" fill="#64748B"/>
<path d="M16.3946 9.97949C16.6504 9.77412 16.981 9.69693 17.3011 9.76761L17.6804 9.85149C18.1857 9.96324 18.6864 9.64411 18.7982 9.13843C18.9099 8.63286 18.5907 8.13243 18.0851 8.02068L17.7057 7.9368C16.8278 7.7428 15.9218 7.95443 15.2206 8.51755C14.5193 9.08074 14.1172 9.91955 14.1172 10.8189C14.1172 11.7182 14.5194 12.5571 15.2206 13.1202C15.7513 13.5464 16.3992 13.7714 17.0637 13.7713C17.2771 13.7713 17.4922 13.7481 17.7057 13.7009L18.0851 13.6171C18.5906 13.5053 18.9099 13.0049 18.7981 12.4993C18.6864 11.9937 18.1857 11.6744 17.6804 11.7862L17.3011 11.8701C16.9806 11.9409 16.6503 11.8636 16.3946 11.6582C16.1387 11.4528 15.9921 11.1469 15.9921 10.8188C15.9921 10.4907 16.1389 10.1849 16.3946 9.97949Z" fill="#64748B"/>
</svg>
