<svg width="20" height="19" viewBox="0 0 20 19" fill="none" xmlns="http://www.w3.org/2000/svg">
<path d="M19 7H5V4C5 2.897 5.897 2 7 2C8.103 2 9 2.897 9 4H11C11 1.794 9.206 0 7 0C4.794 0 3 1.794 3 4V7H1C0.734784 7 0.48043 7.10536 0.292893 7.29289C0.105357 7.48043 0 7.73478 0 8V10C0 12.606 1.674 14.823 4 15.65V19H6V16H14V19H16V15.65C18.326 14.823 20 12.606 20 10V8C20 7.73478 19.8946 7.48043 19.7071 7.29289C19.5196 7.10536 19.2652 7 19 7ZM18 10C18 12.206 16.206 14 14 14H6C3.794 14 2 12.206 2 10V9H18V10Z" fill="#4B5563"/>
</svg>
