<svg width="24" height="24" viewBox="0 0 24 24" fill="none" xmlns="http://www.w3.org/2000/svg">
<path d="M3.75 3C2.5162 3 1.5 4.0162 1.5 5.25V10.6406C0.631449 10.9533 0 11.7797 0 12.75V15V15.75V20.25V21H4.5V18.75C4.5 18.3278 4.8278 18 5.25 18H17.25C17.6722 18 18 18.3278 18 18.75V21H22.5V20.25V15.75V15V12.75C22.5 11.7797 21.8686 10.9533 21 10.6406V5.25C21 4.0162 19.9838 3 18.75 3H3.75ZM3.75 4.5H18.75C19.1722 4.5 19.5 4.8278 19.5 5.25V10.5H18V9.75C18 8.5162 16.9838 7.5 15.75 7.5H12.75C12.1739 7.5 11.6499 7.72701 11.25 8.08887C10.8501 7.72701 10.3261 7.5 9.75 7.5H6.75C5.5162 7.5 4.5 8.5162 4.5 9.75V10.5H3V5.25C3 4.8278 3.3278 4.5 3.75 4.5ZM6.75 9H9.75C10.1722 9 10.5 9.3278 10.5 9.75V10.5H6V9.75C6 9.3278 6.3278 9 6.75 9ZM12.75 9H15.75C16.1722 9 16.5 9.3278 16.5 9.75V10.5H12V9.75C12 9.3278 12.3278 9 12.75 9ZM2.25 12H11.25H17.25H20.25C20.6722 12 21 12.3278 21 12.75V15V15.75V19.5H19.5V18.75C19.5 17.5162 18.4838 16.5 17.25 16.5H5.25C4.0162 16.5 3 17.5162 3 18.75V19.5H1.5V15.75V15V12.75C1.5 12.3278 1.8278 12 2.25 12Z" fill="#4B5563"/>
</svg>
