<svg width="16" height="24" viewBox="0 0 16 24" fill="none" xmlns="http://www.w3.org/2000/svg">
<path d="M14.3552 0H1.64648C1.25817 0 0.943359 0.314812 0.943359 0.703124V18.96C0.943359 19.3483 1.25817 19.6631 1.64648 19.6631H5.77499V23.2968C5.77499 23.5245 5.88529 23.7382 6.07091 23.8701C6.25663 24.0019 6.49466 24.0358 6.70963 23.9608L8.00099 23.5104L9.29197 23.9608C9.36739 23.9871 9.44562 24 9.52348 24C9.66753 24 9.81017 23.9557 9.93069 23.8701C10.1164 23.7383 10.2267 23.5246 10.2267 23.2969V19.6631H14.3552C14.7435 19.6631 15.0583 19.3483 15.0583 18.96V0.703124C15.0583 0.314812 14.7436 0 14.3552 0ZM8.82045 18.96C8.82045 19.4118 8.45291 19.7793 8.00108 19.7793C7.54902 19.7793 7.18124 19.4118 7.18124 18.96C7.18124 18.5081 7.54902 18.1406 8.00108 18.1406C8.45291 18.1406 8.82045 18.5081 8.82045 18.96ZM8.23269 22.1018C8.08274 22.0495 7.91947 22.0495 7.76961 22.1018L7.18129 22.307V21.0286C7.43521 21.1295 7.71163 21.1856 8.00113 21.1856C8.29044 21.1856 8.56672 21.1296 8.8205 21.0286V22.3069L8.23269 22.1018ZM13.6521 18.2568H10.1122C9.81715 17.3732 8.98259 16.7343 8.00108 16.7343C7.01938 16.7343 6.18463 17.3732 5.88951 18.2568H2.34961V1.40625H13.6521V18.2568Z" fill="#64748B"/>
<path d="M4.4707 4.23047H7.29492C7.68323 4.23047 7.99805 3.91566 7.99805 3.52734C7.99805 3.13903 7.68323 2.82422 7.29492 2.82422H4.4707C4.08239 2.82422 3.76758 3.13903 3.76758 3.52734C3.76758 3.91566 4.08239 4.23047 4.4707 4.23047Z" fill="#64748B"/>
<path d="M4.4707 7.05469H11.5312C11.9196 7.05469 12.2344 6.73988 12.2344 6.35156C12.2344 5.96325 11.9196 5.64844 11.5312 5.64844H4.4707C4.08239 5.64844 3.76758 5.96325 3.76758 6.35156C3.76758 6.73988 4.08239 7.05469 4.4707 7.05469Z" fill="#64748B"/>
<path d="M4.4707 9.87891H11.5312C11.9196 9.87891 12.2344 9.56409 12.2344 9.17578C12.2344 8.78747 11.9196 8.47266 11.5312 8.47266H4.4707C4.08239 8.47266 3.76758 8.78747 3.76758 9.17578C3.76758 9.56409 4.08239 9.87891 4.4707 9.87891Z" fill="#64748B"/>
<path d="M4.4707 12.7031H11.5312C11.9196 12.7031 12.2344 12.3883 12.2344 12C12.2344 11.6117 11.9196 11.2969 11.5312 11.2969H4.4707C4.08239 11.2969 3.76758 11.6117 3.76758 12C3.76758 12.3883 4.08239 12.7031 4.4707 12.7031Z" fill="#64748B"/>
<path d="M4.4707 15.5273H11.5312C11.9196 15.5273 12.2344 15.2125 12.2344 14.8242C12.2344 14.4359 11.9196 14.1211 11.5312 14.1211H4.4707C4.08239 14.1211 3.76758 14.4359 3.76758 14.8242C3.76758 15.2125 4.08239 15.5273 4.4707 15.5273Z" fill="#64748B"/>
</svg>
