<svg width="33" height="32" viewBox="0 0 33 32" fill="none" xmlns="http://www.w3.org/2000/svg">
<path d="M16.5003 2.66675C9.14833 2.66675 3.16699 8.64808 3.16699 16.0001C3.16699 23.3521 9.14833 29.3334 16.5003 29.3334C23.8523 29.3334 29.8337 23.3521 29.8337 16.0001C29.8337 8.64808 23.8523 2.66675 16.5003 2.66675ZM16.5003 26.6667C10.619 26.6667 5.83366 21.8814 5.83366 16.0001C5.83366 10.1187 10.619 5.33341 16.5003 5.33341C22.3817 5.33341 27.167 10.1187 27.167 16.0001C27.167 21.8814 22.3817 26.6667 16.5003 26.6667Z" fill="#4B5563"/>
<path d="M17.8337 9.33325H15.167V17.3333H23.167V14.6666H17.8337V9.33325Z" fill="#4B5563"/>
</svg>
