<svg width="24" height="24" viewBox="0 0 24 24" fill="none" xmlns="http://www.w3.org/2000/svg">
<path d="M12 3C7.03832 3 3 7.03832 3 12C3 16.9617 7.03832 21 12 21C16.9617 21 21 16.9617 21 12C21 7.03832 16.9617 3 12 3ZM12 4.5C16.151 4.5 19.5 7.84898 19.5 12C19.5 15.7705 16.7338 18.871 13.1162 19.4092V14.187H15.252L15.5874 12.0176H13.1162V10.8325C13.1162 9.93177 13.4121 9.13184 14.2544 9.13184H15.6079V7.23926C15.3702 7.20701 14.867 7.13672 13.916 7.13672C11.93 7.13672 10.7666 8.18521 10.7666 10.5747V12.0176H8.72461V14.187H10.7666V19.3901C7.20664 18.803 4.5 15.7298 4.5 12C4.5 7.84898 7.84898 4.5 12 4.5Z" fill="#64748B"/>
</svg>
