<svg width="31" height="28" viewBox="0 0 31 28" fill="none" xmlns="http://www.w3.org/2000/svg">
<path fill-rule="evenodd" clip-rule="evenodd" d="M17.4133 0.999635C17.0383 0.624693 16.5296 0.414062 15.9993 0.414062C15.469 0.414062 14.9604 0.624693 14.5853 0.999635L1.29131 14.2916C1.19833 14.3846 1.12458 14.495 1.07426 14.6165C1.02395 14.7379 0.998047 14.8681 0.998047 14.9996C0.998047 15.1311 1.02395 15.2613 1.07426 15.3828C1.12458 15.5043 1.19833 15.6147 1.29131 15.7076C1.47908 15.8954 1.73376 16.0009 1.99931 16.0009C2.1308 16.0009 2.261 15.975 2.38248 15.9247C2.50396 15.8744 2.61433 15.8006 2.70731 15.7076L3.99931 14.4136V24.9996C3.99931 25.7953 4.31538 26.5583 4.87799 27.121C5.4406 27.6836 6.20366 27.9996 6.99931 27.9996H24.9993C25.795 27.9996 26.558 27.6836 27.1206 27.121C27.6832 26.5583 27.9993 25.7953 27.9993 24.9996V14.4136L29.2913 15.7076C29.4791 15.8954 29.7338 16.0009 29.9993 16.0009C30.2649 16.0009 30.5195 15.8954 30.7073 15.7076C30.8951 15.5199 31.0006 15.2652 31.0006 14.9996C31.0006 14.7341 30.8951 14.4794 30.7073 14.2916L25.9993 9.58564V2.99964C25.9993 2.73442 25.894 2.48007 25.7064 2.29253C25.5189 2.10499 25.2645 1.99964 24.9993 1.99964H22.9993C22.7341 1.99964 22.4797 2.10499 22.2922 2.29253C22.1047 2.48007 21.9993 2.73442 21.9993 2.99964V5.58564L17.4133 0.999635ZM25.9993 12.4136L15.9993 2.41364L5.99931 12.4136V24.9996C5.99931 25.2649 6.10467 25.5192 6.2922 25.7067C6.47974 25.8943 6.73409 25.9996 6.99931 25.9996H24.9993C25.2645 25.9996 25.5189 25.8943 25.7064 25.7067C25.894 25.5192 25.9993 25.2649 25.9993 24.9996V12.4136Z" fill="#64748B"/>
</svg>
