<svg width="27" height="25" viewBox="0 0 27 25" fill="none" xmlns="http://www.w3.org/2000/svg">
<path d="M1.66675 17C4.97741 17 7.46008 13 7.46008 13C7.46008 13 9.94275 17 13.2534 17C16.5627 17 19.8734 13 19.8734 13C19.8734 13 23.1841 17 25.6667 17M1.66675 23.6667C4.97741 23.6667 7.46008 19.6667 7.46008 19.6667C7.46008 19.6667 9.94275 23.6667 13.2534 23.6667C16.5627 23.6667 19.8734 19.6667 19.8734 19.6667C19.8734 19.6667 23.1841 23.6667 25.6667 23.6667M23.0001 10.3333C23.0001 9.10766 22.7587 7.89399 22.2896 6.76162C21.8206 5.62925 21.1331 4.60035 20.2664 3.73367C19.3997 2.86699 18.3708 2.1795 17.2385 1.71046C16.1061 1.24141 14.8924 1 13.6667 1C12.4411 1 11.2274 1.24141 10.095 1.71046C8.96266 2.1795 7.93376 2.86699 7.06708 3.73367C6.2004 4.60035 5.51292 5.62925 5.04387 6.76162C4.57483 7.89399 4.33341 9.10766 4.33341 10.3333" stroke="#4B5563" stroke-width="2" stroke-linecap="round" stroke-linejoin="round"/>
</svg>
