<svg width="56" height="56" viewBox="0 0 56 56" fill="none" xmlns="http://www.w3.org/2000/svg">
<path d="M5.25 36.75L17.2877 24.7123C17.7752 24.2248 18.3539 23.8381 18.9909 23.5743C19.6279 23.3104 20.3106 23.1746 21 23.1746C21.6894 23.1746 22.3721 23.3104 23.0091 23.5743C23.6461 23.8381 24.2248 24.2248 24.7123 24.7123L36.75 36.75M33.25 33.25L36.5377 29.9623C37.0252 29.4748 37.6039 29.0881 38.2409 28.8243C38.8779 28.5604 39.5606 28.4246 40.25 28.4246C40.9394 28.4246 41.6221 28.5604 42.2591 28.8243C42.8961 29.0881 43.4748 29.4748 43.9623 29.9623L50.75 36.75M8.75 45.5H47.25C48.1783 45.5 49.0685 45.1312 49.7249 44.4749C50.3812 43.8185 50.75 42.9283 50.75 42V14C50.75 13.0717 50.3812 12.1815 49.7249 11.5251C49.0685 10.8687 48.1783 10.5 47.25 10.5H8.75C7.82174 10.5 6.9315 10.8687 6.27513 11.5251C5.61875 12.1815 5.25 13.0717 5.25 14V42C5.25 42.9283 5.61875 43.8185 6.27513 44.4749C6.9315 45.1312 7.82174 45.5 8.75 45.5ZM33.25 19.25H33.2687V19.2687H33.25V19.25ZM34.125 19.25C34.125 19.4821 34.0328 19.7046 33.8687 19.8687C33.7046 20.0328 33.4821 20.125 33.25 20.125C33.0179 20.125 32.7954 20.0328 32.6313 19.8687C32.4672 19.7046 32.375 19.4821 32.375 19.25C32.375 19.0179 32.4672 18.7954 32.6313 18.6313C32.7954 18.4672 33.0179 18.375 33.25 18.375C33.4821 18.375 33.7046 18.4672 33.8687 18.6313C34.0328 18.7954 34.125 19.0179 34.125 19.25V19.25Z" stroke="#4B5563" stroke-width="1.5" stroke-linecap="round" stroke-linejoin="round"/>
</svg>
