<svg width="22" height="21" viewBox="0 0 22 21" fill="none" xmlns="http://www.w3.org/2000/svg">
<path d="M0 11.0004C0 9.90039 0.9 9.00039 2 9.00039C3.1 9.00039 4 9.90039 4 11.0004C4 12.1004 3.1 13.0004 2 13.0004C0.9 13.0004 0 12.1004 0 11.0004ZM7.89 8.11039L11.45 7.16039C11.98 7.02039 12.3 6.47039 12.16 5.94039L11.9 4.97039C11.76 4.44039 11.21 4.12039 10.68 4.26039L7.11 5.21039C6.31 5.42039 5.83 6.25039 6.05 7.05039C6.27 7.85039 7.09 8.33039 7.89 8.11039ZM21.52 0.520387C21.4521 0.451451 21.3711 0.396708 21.2819 0.359342C21.1926 0.321977 21.0968 0.302734 21 0.302734C20.9032 0.302734 20.8074 0.321977 20.7181 0.359342C20.6289 0.396708 20.5479 0.451451 20.48 0.520387L18 3.00039L16 7.00039L6.52 9.87039C5.7 10.0704 5.13 10.7604 5.02 11.5504L4.24 16.0004L2 19.0004C1.67 19.4404 1.76 20.0704 2.2 20.4004C2.64 20.7304 3.27 20.6404 3.6 20.2004L6 17.0004L7.14 13.8604L12.71 12.0904C12.9 12.0304 13.09 11.9404 13.25 11.8204L17.45 8.88039C17.81 8.63039 18.07 8.27039 18.2 7.86039L19.5 3.90039L21.56 1.52039C21.81 1.22039 21.79 0.790387 21.52 0.520387Z" fill="#64748B"/>
</svg>
