<svg width="28" height="24" viewBox="0 0 28 24" fill="none" xmlns="http://www.w3.org/2000/svg">
<g clip-path="url(#clip0_226_9831)">
<path d="M23.356 11.3696V10.8056C23.3549 9.20404 22.7182 7.66836 21.5858 6.53587C20.4533 5.40338 18.9176 4.76668 17.316 4.76562H6.54C4.93842 4.76668 3.40274 5.40338 2.27025 6.53587C1.13776 7.66836 0.50106 9.20404 0.5 10.8056L0.5 11.3696C0.50106 12.9712 1.13776 14.5069 2.27025 15.6394C3.40274 16.7719 4.93842 17.4086 6.54 17.4096H17.316C18.9176 17.4086 20.4533 16.7719 21.5858 15.6394C22.7182 14.5069 23.3549 12.9712 23.356 11.3696ZM6.998 16.0676C5.67722 16.0676 4.41054 15.5429 3.47661 14.609C2.54268 13.6751 2.018 12.4084 2.018 11.0876C2.018 9.76685 2.54268 8.50017 3.47661 7.56623C4.41054 6.6323 5.67722 6.10763 6.998 6.10763H16.859C18.1798 6.10763 19.4465 6.6323 20.3804 7.56623C21.3143 8.50017 21.839 9.76685 21.839 11.0876C21.839 12.4084 21.3143 13.6751 20.3804 14.609C19.4465 15.5429 18.1798 16.0676 16.859 16.0676C15.6795 15.915 14.6051 15.3114 13.861 14.3836L13.854 14.3746C13.6532 14.1624 13.4112 13.9934 13.1428 13.878C12.8743 13.7626 12.5852 13.7033 12.293 13.7036C11.66 13.7036 11.092 13.9766 10.698 14.4116L10.696 14.4136C10.2321 14.9347 9.66304 15.3517 9.02633 15.6369C8.38962 15.9222 7.69969 16.0693 7.002 16.0686H6.996L6.998 16.0676Z" fill="#64748B"/>
<path d="M26.6134 4.68751e-05H24.7304C24.5709 0.000574146 24.418 0.0641683 24.3053 0.176951C24.1925 0.289734 24.1289 0.442549 24.1284 0.602047V3.80205C24.1284 4.11505 24.3694 4.37205 24.6754 4.39705H24.6774V15.943C24.676 17.1197 24.208 18.2477 23.376 19.0797C22.544 19.9117 21.416 20.3797 20.2394 20.381H14.3674C14.1697 19.8996 13.8335 19.4876 13.4014 19.1974C12.9694 18.9072 12.4608 18.7519 11.9404 18.751C11.245 18.751 10.578 19.0273 10.0863 19.519C9.59461 20.0107 9.31836 20.6776 9.31836 21.373C9.31836 22.0684 9.59461 22.7354 10.0863 23.2271C10.578 23.7188 11.245 23.995 11.9404 23.995H11.9474C12.4644 23.995 12.9698 23.8415 13.3995 23.554C13.8293 23.2665 14.164 22.8579 14.3614 22.38L14.3674 22.363H20.2394C21.9438 22.3615 23.5779 21.6837 24.7832 20.4786C25.9885 19.2735 26.6665 17.6395 26.6684 15.935V4.39805C26.8165 4.38434 26.9541 4.31585 27.0544 4.20598C27.1546 4.09611 27.2102 3.95278 27.2104 3.80405V0.596047C27.2104 0.437793 27.1476 0.285992 27.0359 0.173903C26.9242 0.0618131 26.7726 -0.00142385 26.6144 -0.00195312L26.6134 4.68751e-05Z" fill="#64748B"/>
</g>
<defs>
<clipPath id="clip0_226_9831">
<rect width="27.0011" height="24" fill="white" transform="translate(0.5)"/>
</clipPath>
</defs>
</svg>
