<svg width="23" height="17" viewBox="0 0 23 17" fill="none" xmlns="http://www.w3.org/2000/svg">
<path d="M11.5235 -0.000239688C11.4072 -0.00323285 11.2919 0.0208383 11.1866 0.0700728L1.43657 4.57007C1.30723 4.63044 1.1978 4.72646 1.12113 4.84686C1.04446 4.96725 1.00373 5.10702 1.00373 5.24976C1.00373 5.3925 1.04446 5.53227 1.12113 5.65266C1.1978 5.77306 1.30723 5.86908 1.43657 5.92945L11.1866 10.4294C11.2849 10.4747 11.3918 10.4981 11.5 10.4981C11.6083 10.4981 11.7152 10.4747 11.8135 10.4294L21.5635 5.92945C21.6929 5.86908 21.8023 5.77306 21.879 5.65266C21.9556 5.53227 21.9964 5.3925 21.9964 5.24976C21.9964 5.10702 21.9556 4.96725 21.879 4.84686C21.8023 4.72646 21.6929 4.63044 21.5635 4.57007L11.8135 0.0700728C11.7225 0.0274443 11.6239 0.00353357 11.5235 -0.000239688ZM11.5 1.573L19.4629 5.24976L11.5 8.92359L3.53716 5.24976L11.5 1.573ZM21.2764 7.47925C21.1575 7.48216 21.0411 7.51329 20.9366 7.57007L11.5 11.9236L2.06352 7.57007C1.95046 7.51566 1.82556 7.49048 1.70024 7.49683C1.53279 7.50677 1.3735 7.57256 1.24784 7.68368C1.12217 7.7948 1.03738 7.94484 1.00702 8.10982C0.976656 8.27479 1.00247 8.44519 1.08034 8.59377C1.15821 8.74235 1.28363 8.86054 1.43657 8.92945L11.1866 13.4294C11.2849 13.4747 11.3918 13.4981 11.5 13.4981C11.6083 13.4981 11.7152 13.4747 11.8135 13.4294L21.5635 8.92945C21.7286 8.86613 21.8661 8.74652 21.9516 8.59172C22.0371 8.43692 22.0651 8.2569 22.0308 8.08343C21.9964 7.90996 21.9019 7.7542 21.7639 7.64365C21.6258 7.53311 21.4532 7.47488 21.2764 7.47925ZM21.2764 10.4793C21.1575 10.4822 21.0411 10.5133 20.9366 10.5701L11.5 14.9236L2.06352 10.5701C1.95046 10.5157 1.82556 10.4905 1.70024 10.4968C1.53279 10.5068 1.3735 10.5726 1.24784 10.6837C1.12217 10.7948 1.03738 10.9448 1.00702 11.1098C0.976656 11.2748 1.00247 11.4452 1.08034 11.5938C1.15821 11.7423 1.28363 11.8605 1.43657 11.9294L11.1866 16.4294C11.2849 16.4747 11.3918 16.4981 11.5 16.4981C11.6083 16.4981 11.7152 16.4747 11.8135 16.4294L21.5635 11.9294C21.7286 11.8661 21.8661 11.7465 21.9516 11.5917C22.0371 11.4369 22.0651 11.2569 22.0308 11.0834C21.9964 10.91 21.9019 10.7542 21.7639 10.6437C21.6258 10.5331 21.4532 10.4749 21.2764 10.4793Z" fill="#4B5563"/>
</svg>
