<svg width="68" height="68" viewBox="0 0 68 68" fill="none" xmlns="http://www.w3.org/2000/svg">
<path d="M23 36.75L31.25 45L45 25.75M67 34C67 38.6493 64.69 42.7633 61.159 45.2493C61.5394 47.4228 61.3905 49.656 60.7248 51.7597C60.0591 53.8634 58.8962 55.7757 57.3347 57.3347C55.7757 58.8962 53.8634 60.0591 51.7597 60.7248C49.656 61.3905 47.4228 61.5394 45.2493 61.159C43.9815 62.9648 42.2971 64.4384 40.3389 65.4551C38.3808 66.4719 36.2064 67.0018 34 67C29.3507 67 25.2367 64.69 22.7507 61.159C20.5772 61.5391 18.3441 61.39 16.2405 60.7243C14.1368 60.0587 12.2245 58.896 10.6653 57.3347C9.10379 55.7757 7.94093 53.8634 7.27522 51.7597C6.60951 49.656 6.46057 47.4228 6.841 45.2493C5.03525 43.9815 3.56161 42.2971 2.54487 40.3389C1.52812 38.3808 0.998208 36.2064 1 34C1 29.3507 3.31 25.2367 6.841 22.7507C6.46057 20.5772 6.60951 18.344 7.27522 16.2403C7.94093 14.1366 9.10379 12.2243 10.6653 10.6653C12.2245 9.10405 14.1368 7.94135 16.2405 7.27566C18.3441 6.60997 20.5772 6.46088 22.7507 6.841C24.0188 5.03547 25.7031 3.562 27.6613 2.54528C29.6194 1.52856 31.7937 0.998513 34 1C38.6493 1 42.7633 3.31 45.2493 6.841C47.4228 6.46088 49.6559 6.60997 51.7596 7.27566C53.8632 7.94135 55.7755 9.10405 57.3347 10.6653C58.896 12.2245 60.0587 14.1368 60.7243 16.2405C61.39 18.3441 61.5391 20.5772 61.159 22.7507C62.9648 24.0185 64.4384 25.7029 65.4551 27.6611C66.4719 29.6192 67.0018 31.7936 67 34Z" fill="#ECFDF5"/>
<path d="M23 36.75L31.25 45L45 25.75M67 34C67 38.6493 64.69 42.7633 61.159 45.2493C61.5394 47.4228 61.3905 49.656 60.7248 51.7597C60.0591 53.8634 58.8962 55.7757 57.3347 57.3347C55.7757 58.8962 53.8634 60.0591 51.7597 60.7248C49.656 61.3905 47.4228 61.5394 45.2493 61.159C43.9815 62.9648 42.2971 64.4384 40.3389 65.4551C38.3808 66.4719 36.2064 67.0018 34 67C29.3507 67 25.2367 64.69 22.7507 61.159C20.5772 61.5391 18.3441 61.39 16.2405 60.7243C14.1368 60.0586 12.2245 58.896 10.6653 57.3347C9.10379 55.7757 7.94093 53.8634 7.27522 51.7597C6.60951 49.656 6.46057 47.4228 6.841 45.2493C5.03525 43.9815 3.56161 42.2971 2.54487 40.3389C1.52812 38.3808 0.998208 36.2064 1 34C1 29.3507 3.31 25.2367 6.841 22.7507C6.46057 20.5772 6.60951 18.344 7.27522 16.2403C7.94093 14.1366 9.10379 12.2243 10.6653 10.6653C12.2245 9.10405 14.1368 7.94135 16.2405 7.27566C18.3441 6.60997 20.5772 6.46088 22.7507 6.841C24.0188 5.03547 25.7031 3.562 27.6613 2.54528C29.6194 1.52856 31.7937 0.998513 34 1C38.6493 1 42.7633 3.31 45.2493 6.841C47.4228 6.46088 49.6559 6.60997 51.7596 7.27566C53.8632 7.94135 55.7755 9.10405 57.3347 10.6653C58.896 12.2245 60.0587 14.1368 60.7243 16.2405C61.39 18.3441 61.5391 20.5772 61.159 22.7507C62.9648 24.0185 64.4384 25.7029 65.4551 27.6611C66.4719 29.6192 67.0018 31.7936 67 34V34Z" stroke="#059669" stroke-width="2" stroke-linecap="round" stroke-linejoin="round"/>
</svg>
