<svg width="33" height="32" viewBox="0 0 33 32" fill="none" xmlns="http://www.w3.org/2000/svg">
<path d="M20.5 1.5H1.5V20.5H12.5V31H31.5V12H20.5V1.5ZM9.76906 6L6.63081 14.9563H8.75L9.26038 13.5H12.5V18.5H3.5V3.5H18.5V12H14.3333L12.2312 6H9.76906ZM12.0389 11.5H9.96113L11 8.53512L12.0389 11.5ZM29.5 14V29H14.5V14H29.5Z" fill="#4B5563"/>
<path d="M20.3395 23.03C20.5308 23.3372 20.7414 23.632 20.9701 23.9125C20.2451 24.3035 19.4217 24.4993 18.5 24.5V26.5C20.0088 26.5 21.3569 26.0995 22.5 25.3235C23.6431 26.0995 24.9912 26.5 26.5 26.5V24.5C25.5802 24.5 24.7569 24.304 24.03 23.9121C24.2586 23.6317 24.4692 23.3371 24.6605 23.03C25.2369 22.0929 25.6608 21.0701 25.9164 20H27V18H23.5V16.5H21.5V18H18V20H19.0836C19.3392 21.0701 19.7631 22.0929 20.3395 23.03ZM23.8456 20C23.6387 20.6922 23.3425 21.3544 22.9644 21.97C22.8231 22.197 22.668 22.4151 22.5 22.623C22.3442 22.4304 22.1996 22.229 22.0669 22.0198C21.6734 21.3905 21.3664 20.7112 21.1541 20H23.8456Z" fill="#4B5563"/>
</svg>
