<svg width="41" height="30" viewBox="0 0 41 30" fill="none" xmlns="http://www.w3.org/2000/svg">
<path d="M9.99931 12.0005C9.55331 12.0005 9.12531 12.0685 8.69931 12.1305C8.83731 11.6665 8.97931 11.1945 9.20731 10.7705C9.43531 10.1545 9.79131 9.62055 10.1453 9.08255C10.4413 8.50055 10.9633 8.10655 11.3473 7.60855C11.7493 7.12455 12.2973 6.80255 12.7313 6.40055C13.1573 5.98055 13.7153 5.77055 14.1593 5.47455C14.6233 5.20855 15.0273 4.91455 15.4593 4.77455L16.5373 4.33055L17.4853 3.93655L16.5153 0.0605469L15.3213 0.348546C14.9393 0.444546 14.4733 0.556546 13.9433 0.690546C13.4013 0.790546 12.8233 1.06455 12.1793 1.31455C11.5433 1.59855 10.8073 1.79055 10.1233 2.24655C9.43531 2.68255 8.64131 3.04655 7.94131 3.63055C7.26331 4.23255 6.44531 4.75455 5.84131 5.52055C5.18131 6.23655 4.52931 6.98855 4.02331 7.84455C3.43731 8.66055 3.03931 9.55655 2.61931 10.4425C2.23931 11.3285 1.93331 12.2345 1.68331 13.1145C1.20931 14.8785 0.997314 16.5546 0.915314 17.9886C0.847314 19.4246 0.887314 20.6185 0.971314 21.4825C1.00131 21.8906 1.05731 22.2865 1.09731 22.5605L1.14731 22.8965L1.19931 22.8846C1.55504 24.5462 2.37392 26.0732 3.56124 27.2889C4.74856 28.5046 6.2558 29.3593 7.90859 29.7542C9.56139 30.1491 11.2922 30.0679 12.9008 29.5202C14.5094 28.9725 15.9301 27.9805 16.9985 26.6591C18.0669 25.3377 18.7394 23.7408 18.9381 22.0531C19.1369 20.3655 18.8538 18.6561 18.1216 17.1226C17.3894 15.5891 16.238 14.2943 14.8006 13.3878C13.3632 12.4814 11.6986 12.0004 9.99931 12.0005ZM31.9993 12.0005C31.5533 12.0005 31.1253 12.0685 30.6993 12.1305C30.8373 11.6665 30.9793 11.1945 31.2073 10.7705C31.4353 10.1545 31.7913 9.62055 32.1453 9.08255C32.4413 8.50055 32.9633 8.10655 33.3473 7.60855C33.7493 7.12455 34.2973 6.80255 34.7313 6.40055C35.1573 5.98055 35.7153 5.77055 36.1593 5.47455C36.6233 5.20855 37.0273 4.91455 37.4593 4.77455L38.5373 4.33055L39.4853 3.93655L38.5153 0.0605469L37.3213 0.348546C36.9393 0.444546 36.4733 0.556546 35.9433 0.690546C35.4013 0.790546 34.8233 1.06455 34.1793 1.31455C33.5453 1.60055 32.8073 1.79055 32.1233 2.24855C31.4353 2.68455 30.6413 3.04855 29.9413 3.63255C29.2633 4.23455 28.4453 4.75655 27.8413 5.52055C27.1813 6.23655 26.5293 6.98855 26.0233 7.84455C25.4373 8.66055 25.0393 9.55655 24.6193 10.4425C24.2393 11.3285 23.9333 12.2345 23.6833 13.1145C23.2093 14.8785 22.9973 16.5546 22.9153 17.9886C22.8473 19.4246 22.8873 20.6185 22.9713 21.4825C23.0013 21.8906 23.0573 22.2865 23.0973 22.5605L23.1473 22.8965L23.1993 22.8846C23.555 24.5462 24.3739 26.0732 25.5612 27.2889C26.7486 28.5046 28.2558 29.3593 29.9086 29.7542C31.5614 30.1491 33.2922 30.0679 34.9008 29.5202C36.5094 28.9725 37.9301 27.9805 38.9985 26.6591C40.0669 25.3377 40.7394 23.7408 40.9381 22.0531C41.1369 20.3655 40.8538 18.6561 40.1216 17.1226C39.3894 15.5891 38.238 14.2943 36.8006 13.3878C35.3632 12.4814 33.6986 12.0004 31.9993 12.0005Z" fill="#58B6FF"/>
</svg>
