<svg width="32" height="32" viewBox="0 0 32 32" fill="none" xmlns="http://www.w3.org/2000/svg">
<path d="M22.2924 26.336L21.4391 19.504C21.3182 18.5363 20.8479 17.6461 20.1167 17.0008C19.3854 16.3555 18.4437 15.9996 17.4684 16H14.5298C13.555 16.0003 12.6139 16.3565 11.8832 17.0017C11.1526 17.6469 10.6826 18.5368 10.5618 19.504L9.7071 26.336C9.6602 26.7114 9.69369 27.0924 9.80534 27.4538C9.917 27.8152 10.1043 28.1487 10.3547 28.4322C10.6052 28.7157 10.9131 28.9427 11.2579 29.098C11.6028 29.2534 11.9768 29.3336 12.3551 29.3333H19.6458C20.0239 29.3334 20.3978 29.2531 20.7425 29.0976C21.0872 28.9422 21.395 28.7152 21.6453 28.4317C21.8956 28.1483 22.0827 27.8148 22.1943 27.4535C22.3059 27.0922 22.3393 26.7112 22.2924 26.336V26.336Z" stroke="#4B5563" stroke-width="2" stroke-linecap="round" stroke-linejoin="round"/>
<path d="M16 10.6667C18.2091 10.6667 20 8.87589 20 6.66675C20 4.45761 18.2091 2.66675 16 2.66675C13.7909 2.66675 12 4.45761 12 6.66675C12 8.87589 13.7909 10.6667 16 10.6667Z" stroke="#4B5563" stroke-width="2"/>
<path d="M5.33366 14.6668C6.80642 14.6668 8.00033 13.4729 8.00033 12.0002C8.00033 10.5274 6.80642 9.3335 5.33366 9.3335C3.8609 9.3335 2.66699 10.5274 2.66699 12.0002C2.66699 13.4729 3.8609 14.6668 5.33366 14.6668Z" stroke="#4B5563" stroke-width="2"/>
<path d="M26.6667 14.6668C28.1394 14.6668 29.3333 13.4729 29.3333 12.0002C29.3333 10.5274 28.1394 9.3335 26.6667 9.3335C25.1939 9.3335 24 10.5274 24 12.0002C24 13.4729 25.1939 14.6668 26.6667 14.6668Z" stroke="#4B5563" stroke-width="2"/>
<path d="M5.33345 18.6667H4.92545C4.2942 18.6667 3.68339 18.8905 3.20168 19.2985C2.71998 19.7065 2.39862 20.2721 2.29478 20.8947L1.85078 23.5614C1.78706 23.9435 1.80734 24.3348 1.91021 24.7083C2.01307 25.0817 2.19605 25.4282 2.44642 25.7238C2.69679 26.0193 3.00853 26.2568 3.35997 26.4196C3.71141 26.5825 4.09411 26.6668 4.48145 26.6667H9.33345M26.6668 18.6667H27.0748C27.706 18.6667 28.3168 18.8905 28.7985 19.2985C29.2802 19.7065 29.6016 20.2721 29.7054 20.8947L30.1494 23.5614C30.2132 23.9435 30.1929 24.3348 30.09 24.7083C29.9872 25.0817 29.8042 25.4282 29.5538 25.7238C29.3034 26.0193 28.9917 26.2568 28.6403 26.4196C28.2888 26.5825 27.9061 26.6668 27.5188 26.6667H22.6668" stroke="#4B5563" stroke-width="2" stroke-linecap="round" stroke-linejoin="round"/>
</svg>
